<svg width="5" height="5" viewBox="0 0 5 5" fill="none" xmlns="http://www.w3.org/2000/svg">
<path d="M2.5 0C1.11942 0 0 1.11942 0 2.5C0 3.88058 1.11942 5 2.5 5C3.88058 5 5 3.88058 5 2.5C5 1.11942 3.88058 0 2.5 0ZM2.5 4.57589C1.35379 4.57589 0.424107 3.64621 0.424107 2.5C0.424107 1.35379 1.35379 0.424107 2.5 0.424107C3.64621 0.424107 4.57589 1.35379 4.57589 2.5C4.57589 3.64621 3.64621 4.57589 2.5 4.57589ZM2.53125 1.60324C2.82701 1.60324 3.0279 1.79185 3.05022 2.06864C3.0519 2.09208 3.07143 2.10993 3.09487 2.10993H3.41127C3.42578 2.10993 3.4375 2.09821 3.4375 2.08371C3.4375 1.59989 3.0558 1.26116 2.52958 1.26116C1.91629 1.26116 1.5625 1.67522 1.5625 2.35938V2.65123C1.5625 3.33036 1.91629 3.73884 2.52958 3.73884C3.05413 3.73884 3.4375 3.41071 3.4375 2.94978C3.4375 2.93527 3.42578 2.92355 3.41127 2.92355H3.09431C3.07087 2.92355 3.0519 2.94141 3.04967 2.96429C3.02623 3.22154 2.82589 3.39844 2.53069 3.39844C2.16629 3.39844 1.96094 3.13114 1.96094 2.6529V2.35938C1.9615 1.87388 2.16741 1.60324 2.53125 1.60324Z" fill="white"/>
</svg>
