<svg width="50" height="10" viewBox="0 0 50 10" fill="none" xmlns="http://www.w3.org/2000/svg">
<path d="M9.60443 3.3375L6.62904 2.90508L5.29897 0.208598C5.26264 0.13477 5.20287 0.0750043 5.12904 0.0386762C4.94389 -0.05273 4.71889 0.0234418 4.62631 0.208598L3.29623 2.90508L0.320841 3.3375C0.23881 3.34922 0.16381 3.38789 0.106388 3.44649C0.0369681 3.51784 -0.00128544 3.61383 3.29835e-05 3.71337C0.00135141 3.81291 0.0421339 3.90786 0.113419 3.97735L2.26615 6.07618L1.75756 9.03985C1.74563 9.10879 1.75326 9.17969 1.77958 9.24452C1.8059 9.30935 1.84986 9.3655 1.90647 9.40662C1.96308 9.44773 2.03008 9.47216 2.09986 9.47714C2.16965 9.48212 2.23944 9.46744 2.30131 9.43477L4.96264 8.03555L7.62397 9.43477C7.69662 9.47344 7.781 9.48633 7.86186 9.47227C8.06576 9.43711 8.20287 9.24375 8.16772 9.03985L7.65912 6.07618L9.81186 3.97735C9.87045 3.91993 9.90912 3.84493 9.92084 3.76289C9.95248 3.55782 9.80951 3.36797 9.60443 3.3375Z" fill="#E4DD32"/>
<path d="M29.6044 3.3375L26.629 2.90508L25.299 0.208598C25.2626 0.13477 25.2029 0.0750043 25.129 0.0386762C24.9439 -0.05273 24.7189 0.0234418 24.6263 0.208598L23.2962 2.90508L20.3208 3.3375C20.2388 3.34922 20.1638 3.38789 20.1064 3.44649C20.037 3.51784 19.9987 3.61383 20 3.71337C20.0014 3.81291 20.0421 3.90786 20.1134 3.97735L22.2662 6.07618L21.7576 9.03985C21.7456 9.10879 21.7533 9.17969 21.7796 9.24452C21.8059 9.30935 21.8499 9.3655 21.9065 9.40662C21.9631 9.44773 22.0301 9.47216 22.0999 9.47714C22.1697 9.48212 22.2394 9.46744 22.3013 9.43477L24.9626 8.03555L27.624 9.43477C27.6966 9.47344 27.781 9.48633 27.8619 9.47227C28.0658 9.43711 28.2029 9.24375 28.1677 9.03985L27.6591 6.07618L29.8119 3.97735C29.8705 3.91993 29.9091 3.84493 29.9208 3.76289C29.9525 3.55782 29.8095 3.36797 29.6044 3.3375Z" fill="#E4DD32"/>
<path d="M19.6044 3.3375L16.629 2.90508L15.299 0.208598C15.2626 0.13477 15.2029 0.0750043 15.129 0.0386762C14.9439 -0.05273 14.7189 0.0234418 14.6263 0.208598L13.2962 2.90508L10.3208 3.3375C10.2388 3.34922 10.1638 3.38789 10.1064 3.44649C10.037 3.51784 9.99871 3.61383 10 3.71337C10.0014 3.81291 10.0421 3.90786 10.1134 3.97735L12.2662 6.07618L11.7576 9.03985C11.7456 9.10879 11.7533 9.17969 11.7796 9.24452C11.8059 9.30935 11.8499 9.3655 11.9065 9.40662C11.9631 9.44773 12.0301 9.47216 12.0999 9.47714C12.1697 9.48212 12.2394 9.46744 12.3013 9.43477L14.9626 8.03555L17.624 9.43477C17.6966 9.47344 17.781 9.48633 17.8619 9.47227C18.0658 9.43711 18.2029 9.24375 18.1677 9.03985L17.6591 6.07618L19.8119 3.97735C19.8705 3.91993 19.9091 3.84493 19.9208 3.76289C19.9525 3.55782 19.8095 3.36797 19.6044 3.3375Z" fill="#E4DD32"/>
<path d="M39.6044 3.3375L36.629 2.90508L35.299 0.208598C35.2626 0.13477 35.2029 0.0750043 35.129 0.0386762C34.9439 -0.05273 34.7189 0.0234418 34.6263 0.208598L33.2962 2.90508L30.3208 3.3375C30.2388 3.34922 30.1638 3.38789 30.1064 3.44649C30.037 3.51784 29.9987 3.61383 30 3.71337C30.0014 3.81291 30.0421 3.90786 30.1134 3.97735L32.2662 6.07618L31.7576 9.03985C31.7456 9.10879 31.7533 9.17969 31.7796 9.24452C31.8059 9.30935 31.8499 9.3655 31.9065 9.40662C31.9631 9.44773 32.0301 9.47216 32.0999 9.47714C32.1697 9.48212 32.2394 9.46744 32.3013 9.43477L34.9626 8.03555L37.624 9.43477C37.6966 9.47344 37.781 9.48633 37.8619 9.47227C38.0658 9.43711 38.2029 9.24375 38.1677 9.03985L37.6591 6.07618L39.8119 3.97735C39.8705 3.91993 39.9091 3.84493 39.9208 3.76289C39.9525 3.55782 39.8095 3.36797 39.6044 3.3375Z" fill="#E4DD32"/>
<path d="M49.6044 3.3375L46.629 2.90508L45.299 0.208598C45.2626 0.13477 45.2029 0.0750043 45.129 0.0386762C44.9439 -0.05273 44.7189 0.0234418 44.6263 0.208598L43.2962 2.90508L40.3208 3.3375C40.2388 3.34922 40.1638 3.38789 40.1064 3.44649C40.037 3.51784 39.9987 3.61383 40 3.71337C40.0014 3.81291 40.0421 3.90786 40.1134 3.97735L42.2662 6.07618L41.7576 9.03985C41.7456 9.10879 41.7533 9.17969 41.7796 9.24452C41.8059 9.30935 41.8499 9.3655 41.9065 9.40662C41.9631 9.44773 42.0301 9.47216 42.0999 9.47714C42.1697 9.48212 42.2394 9.46744 42.3013 9.43477L44.9626 8.03555L47.624 9.43477C47.6966 9.47344 47.781 9.48633 47.8619 9.47227C48.0658 9.43711 48.2029 9.24375 48.1677 9.03985L47.6591 6.07618L49.8119 3.97735C49.8705 3.91993 49.9091 3.84493 49.9208 3.76289C49.9525 3.55782 49.8095 3.36797 49.6044 3.3375Z" fill="#E4DD32"/>
</svg>
