<svg width="25" height="24" viewBox="0 0 25 24" fill="none" xmlns="http://www.w3.org/2000/svg">
<g clip-path="url(#clip0_37_9)">
<path fill-rule="evenodd" clip-rule="evenodd" d="M1 12.2991C1 17.8854 5.22632 22.5307 10.7538 23.4727V15.3573H7.82765V12.2364H10.7538V9.73908C10.7538 6.92999 12.6392 5.37001 15.3059 5.37001C16.1506 5.37001 17.0616 5.49455 17.9062 5.61908V8.49091H16.411C14.9801 8.49091 14.6553 9.17726 14.6553 10.0518V12.2364H17.7765L17.2566 15.3573H14.6553V23.4727C20.1828 22.5307 24.4091 17.8864 24.4091 12.2991C24.4091 6.08446 19.142 1 12.7045 1C6.26705 1 1 6.08446 1 12.2991Z" fill="#6DDAD3"/>
</g>
<g clip-path="url(#clip1_37_9)">
<path fill-rule="evenodd" clip-rule="evenodd" d="M0 11.2991C0 16.8854 4.22632 21.5307 9.75379 22.4727V14.3573H6.82765V11.2364H9.75379V8.73908C9.75379 5.92999 11.6392 4.37001 14.3059 4.37001C15.1506 4.37001 16.0616 4.49455 16.9062 4.61908V7.49091H15.411C13.9801 7.49091 13.6553 8.17726 13.6553 9.05183V11.2364H16.7765L16.2566 14.3573H13.6553V22.4727C19.1828 21.5307 23.4091 16.8864 23.4091 11.2991C23.4091 5.08446 18.142 0 11.7045 0C5.26705 0 0 5.08446 0 11.2991Z" fill="#132235"/>
</g>
<defs>
<clipPath id="clip0_37_9">
<rect width="23.4091" height="22.4727" fill="white" transform="translate(1 1)"/>
</clipPath>
<clipPath id="clip1_37_9">
<rect width="23.4091" height="22.4727" fill="white"/>
</clipPath>
</defs>
</svg>
