<svg width="25" height="25" viewBox="0 0 25 25" fill="none" xmlns="http://www.w3.org/2000/svg">
<path fill-rule="evenodd" clip-rule="evenodd" d="M7.87908 1.07023C9.12721 1.01277 9.52517 1 12.7045 1C15.8839 1 16.2819 1.01383 17.5289 1.07023C18.776 1.12662 19.6273 1.3256 20.3721 1.61396C21.152 1.9087 21.8596 2.36943 22.4449 2.9653C23.0407 3.54946 23.5004 4.25599 23.7941 5.037C24.0835 5.78184 24.2814 6.63308 24.3389 7.87802C24.3963 9.12827 24.4091 9.52623 24.4091 12.7045C24.4091 15.8839 24.3953 16.2819 24.3389 17.53C24.2825 18.7749 24.0835 19.6262 23.7941 20.371C23.5004 21.1521 23.04 21.8598 22.4449 22.4449C21.8596 23.0407 21.152 23.5004 20.3721 23.7941C19.6273 24.0835 18.776 24.2814 17.5311 24.3389C16.2819 24.3963 15.8839 24.4091 12.7045 24.4091C9.52517 24.4091 9.12721 24.3953 7.87908 24.3389C6.63414 24.2825 5.7829 24.0835 5.03807 23.7941C4.25697 23.5004 3.54927 23.0399 2.96424 22.4449C2.36877 21.8603 1.90797 21.153 1.61396 20.3721C1.3256 19.6273 1.12769 18.776 1.07023 17.5311C1.01277 16.2808 1 15.8829 1 12.7045C1 9.52517 1.01383 9.12721 1.07023 7.88014C1.12662 6.63308 1.3256 5.78184 1.61396 5.037C1.9084 4.25608 2.36956 3.54873 2.9653 2.96424C3.54951 2.3689 4.25649 1.90811 5.037 1.61396C5.78184 1.3256 6.63308 1.12769 7.87802 1.07023H7.87908ZM17.4342 3.17705C16.1999 3.12065 15.8297 3.10895 12.7045 3.10895C9.57943 3.10895 9.20914 3.12065 7.97484 3.17705C6.83312 3.22918 6.21384 3.41965 5.80099 3.58032C5.25513 3.79313 4.86463 4.04531 4.45497 4.45497C4.06664 4.83276 3.76778 5.29268 3.58032 5.80099C3.41965 6.21384 3.22918 6.83312 3.17705 7.97484C3.12065 9.20914 3.10895 9.57943 3.10895 12.7045C3.10895 15.8297 3.12065 16.1999 3.17705 17.4342C3.22918 18.576 3.41965 19.1952 3.58032 19.6081C3.76759 20.1157 4.06659 20.5764 4.45497 20.9541C4.83271 21.3425 5.29344 21.6415 5.80099 21.8288C6.21384 21.9894 6.83312 22.1799 7.97484 22.232C9.20914 22.2884 9.57837 22.3001 12.7045 22.3001C15.8307 22.3001 16.1999 22.2884 17.4342 22.232C18.576 22.1799 19.1952 21.9894 19.6081 21.8288C20.154 21.616 20.5445 21.3638 20.9541 20.9541C21.3425 20.5764 21.6415 20.1157 21.8288 19.6081C21.9894 19.1952 22.1799 18.576 22.232 17.4342C22.2884 16.1999 22.3001 15.8297 22.3001 12.7045C22.3001 9.57943 22.2884 9.20914 22.232 7.97484C22.1799 6.83312 21.9894 6.21384 21.8288 5.80099C21.616 5.25513 21.3638 4.86463 20.9541 4.45497C20.5763 4.06667 20.1164 3.76782 19.6081 3.58032C19.1952 3.41965 18.576 3.22918 17.4342 3.17705ZM11.2096 16.3127C12.0445 16.6603 12.9742 16.7072 13.8398 16.4454C14.7055 16.1837 15.4534 15.6295 15.9559 14.8776C16.4583 14.1257 16.6841 13.2226 16.5948 12.3227C16.5054 11.4227 16.1063 10.5817 15.4658 9.94334C15.0574 9.53525 14.5637 9.22278 14.0201 9.02841C13.4765 8.83405 12.8965 8.76263 12.322 8.81929C11.7475 8.87596 11.1927 9.0593 10.6975 9.35612C10.2024 9.65294 9.7792 10.0559 9.45845 10.5359C9.1377 11.0159 8.92737 11.561 8.84259 12.132C8.75782 12.7031 8.80071 13.2858 8.96818 13.8383C9.13565 14.3908 9.42353 14.8993 9.8111 15.3271C10.1987 15.755 10.6763 16.0916 11.2096 16.3127ZM8.45048 8.45048C9.00913 7.89182 9.67235 7.44868 10.4023 7.14634C11.1322 6.84399 11.9145 6.68838 12.7045 6.68838C13.4946 6.68838 14.2769 6.84399 15.0068 7.14633C15.7367 7.44868 16.4 7.89182 16.9586 8.45048C17.5173 9.00913 17.9604 9.67235 18.2628 10.4023C18.5651 11.1322 18.7207 11.9145 18.7207 12.7045C18.7207 13.4946 18.5651 14.2769 18.2628 15.0068C17.9604 15.7367 17.5173 16.4 16.9586 16.9586C15.8304 18.0869 14.3001 18.7207 12.7045 18.7207C11.109 18.7207 9.57872 18.0869 8.45048 16.9586C7.32223 15.8304 6.68838 14.3001 6.68838 12.7045C6.68838 11.109 7.32223 9.57872 8.45048 8.45048ZM20.055 7.58434C20.1934 7.45375 20.3043 7.29671 20.3809 7.12251C20.4576 6.94832 20.4985 6.76052 20.5013 6.57023C20.5041 6.37993 20.4686 6.19102 20.3971 6.01466C20.3255 5.83831 20.2193 5.67811 20.0848 5.54353C19.9502 5.40896 19.79 5.30276 19.6136 5.23121C19.4373 5.15967 19.2484 5.12423 19.0581 5.127C18.8678 5.12978 18.68 5.17071 18.5058 5.24736C18.3316 5.32402 18.1745 5.43485 18.0439 5.57329C17.79 5.84252 17.6509 6.20014 17.6563 6.57023C17.6617 6.94031 17.8111 7.29372 18.0728 7.55544C18.3346 7.81716 18.688 7.96658 19.0581 7.97197C19.4281 7.97737 19.7858 7.83832 20.055 7.58434Z" fill="#6DDAD3"/>
<path fill-rule="evenodd" clip-rule="evenodd" d="M6.87908 0.0702273C8.12721 0.0127686 8.52517 0 11.7045 0C14.8839 0 15.2819 0.0138326 16.5289 0.0702273C17.776 0.126622 18.6273 0.325599 19.3721 0.613957C20.152 0.908698 20.8596 1.36943 21.4449 1.9653C22.0407 2.54946 22.5004 3.25599 22.7941 4.037C23.0835 4.78184 23.2814 5.63308 23.3389 6.87802C23.3963 8.12827 23.4091 8.52623 23.4091 11.7045C23.4091 14.8839 23.3953 15.2819 23.3389 16.53C23.2825 17.7749 23.0835 18.6262 22.7941 19.371C22.5004 20.1521 22.04 20.8598 21.4449 21.4449C20.8596 22.0407 20.152 22.5004 19.3721 22.7941C18.6273 23.0835 17.776 23.2814 16.5311 23.3389C15.2819 23.3963 14.8839 23.4091 11.7045 23.4091C8.52517 23.4091 8.12721 23.3953 6.87908 23.3389C5.63414 23.2825 4.7829 23.0835 4.03807 22.7941C3.25697 22.5004 2.54927 22.0399 1.96424 21.4449C1.36877 20.8603 0.907969 20.153 0.613957 19.3721C0.325599 18.6273 0.127686 17.776 0.0702273 16.5311C0.0127686 15.2808 0 14.8829 0 11.7045C0 8.52517 0.0138326 8.12721 0.0702273 6.88014C0.126622 5.63308 0.325599 4.78184 0.613957 4.037C0.908403 3.25608 1.36956 2.54873 1.9653 1.96424C2.54951 1.3689 3.25649 0.908106 4.037 0.613957C4.78184 0.325599 5.63308 0.127686 6.87802 0.0702273H6.87908ZM16.4342 2.17705C15.1999 2.12065 14.8297 2.10895 11.7045 2.10895C8.57943 2.10895 8.20914 2.12065 6.97484 2.17705C5.83312 2.22918 5.21384 2.41965 4.80099 2.58032C4.25513 2.79313 3.86463 3.04531 3.45497 3.45497C3.06664 3.83276 2.76778 4.29268 2.58032 4.80099C2.41965 5.21384 2.22918 5.83312 2.17705 6.97484C2.12065 8.20914 2.10895 8.57943 2.10895 11.7045C2.10895 14.8297 2.12065 15.1999 2.17705 16.4342C2.22918 17.576 2.41965 18.1952 2.58032 18.6081C2.76759 19.1157 3.06659 19.5764 3.45497 19.9541C3.83271 20.3425 4.29344 20.6415 4.80099 20.8288C5.21384 20.9894 5.83312 21.1799 6.97484 21.232C8.20914 21.2884 8.57837 21.3001 11.7045 21.3001C14.8307 21.3001 15.1999 21.2884 16.4342 21.232C17.576 21.1799 18.1952 20.9894 18.6081 20.8288C19.154 20.616 19.5445 20.3638 19.9541 19.9541C20.3425 19.5764 20.6415 19.1157 20.8288 18.6081C20.9894 18.1952 21.1799 17.576 21.232 16.4342C21.2884 15.1999 21.3001 14.8297 21.3001 11.7045C21.3001 8.57943 21.2884 8.20914 21.232 6.97484C21.1799 5.83312 20.9894 5.21384 20.8288 4.80099C20.616 4.25513 20.3638 3.86463 19.9541 3.45497C19.5763 3.06667 19.1164 2.76782 18.6081 2.58032C18.1952 2.41965 17.576 2.22918 16.4342 2.17705ZM10.2096 15.3127C11.0445 15.6603 11.9742 15.7072 12.8398 15.4454C13.7055 15.1837 14.4534 14.6295 14.9559 13.8776C15.4583 13.1257 15.6841 12.2226 15.5948 11.3227C15.5054 10.4227 15.1063 9.58174 14.4658 8.94334C14.0574 8.53525 13.5637 8.22278 13.0201 8.02841C12.4765 7.83405 11.8965 7.76263 11.322 7.81929C10.7475 7.87596 10.1927 8.0593 9.69754 8.35612C9.20238 8.65294 8.7792 9.05585 8.45845 9.53585C8.1377 10.0159 7.92737 10.561 7.84259 11.132C7.75782 11.7031 7.80071 12.2858 7.96818 12.8383C8.13565 13.3908 8.42353 13.8993 8.8111 14.3271C9.19867 14.755 9.67628 15.0916 10.2096 15.3127ZM7.45048 7.45048C8.00913 6.89182 8.67235 6.44868 9.40226 6.14634C10.1322 5.84399 10.9145 5.68838 11.7045 5.68838C12.4946 5.68838 13.2769 5.84399 14.0068 6.14633C14.7367 6.44868 15.4 6.89182 15.9586 7.45048C16.5173 8.00913 16.9604 8.67235 17.2628 9.40226C17.5651 10.1322 17.7207 10.9145 17.7207 11.7045C17.7207 12.4946 17.5651 13.2769 17.2628 14.0068C16.9604 14.7367 16.5173 15.4 15.9586 15.9586C14.8304 17.0869 13.3001 17.7207 11.7045 17.7207C10.109 17.7207 8.57872 17.0869 7.45048 15.9586C6.32223 14.8304 5.68838 13.3001 5.68838 11.7045C5.68838 10.109 6.32223 8.57872 7.45048 7.45048ZM19.055 6.58434C19.1934 6.45375 19.3043 6.29671 19.3809 6.12251C19.4576 5.94832 19.4985 5.76052 19.5013 5.57023C19.5041 5.37993 19.4686 5.19102 19.3971 5.01466C19.3255 4.83831 19.2193 4.67811 19.0848 4.54353C18.9502 4.40896 18.79 4.30276 18.6136 4.23121C18.4373 4.15967 18.2484 4.12423 18.0581 4.127C17.8678 4.12978 17.68 4.17071 17.5058 4.24736C17.3316 4.32402 17.1745 4.43485 17.0439 4.57329C16.79 4.84252 16.6509 5.20014 16.6563 5.57023C16.6617 5.94031 16.8111 6.29372 17.0728 6.55544C17.3346 6.81716 17.688 6.96658 18.0581 6.97197C18.4281 6.97737 18.7858 6.83832 19.055 6.58434Z" fill="#132235"/>
</svg>
