<svg width="170" height="53" viewBox="0 0 170 53" fill="none" xmlns="http://www.w3.org/2000/svg">
<path d="M61.7259 43.1429V38.3932H62.1398L64.3111 42.0979H64.0939L66.2448 38.3932H66.6587V43.1429H66.177V39.1464H66.2923L64.3111 42.539H64.0736L62.0787 39.1464H62.2077V43.1429H61.7259ZM70.7236 43.1836C70.3662 43.1836 70.0338 43.1248 69.7262 43.0071C69.4231 42.885 69.1585 42.7154 68.9323 42.4983C68.7107 42.2766 68.5365 42.021 68.4098 41.7315C68.2877 41.4375 68.2266 41.1163 68.2266 40.768C68.2266 40.4197 68.2877 40.1008 68.4098 39.8113C68.5365 39.5173 68.7107 39.2617 68.9323 39.0446C69.1585 38.823 69.4231 38.6533 69.7262 38.5357C70.0292 38.4136 70.3617 38.3525 70.7236 38.3525C71.0809 38.3525 71.4112 38.4136 71.7142 38.5357C72.0173 38.6533 72.2797 38.8207 72.5013 39.0378C72.7275 39.2549 72.9016 39.5105 73.0238 39.8045C73.1504 40.0986 73.2138 40.4197 73.2138 40.768C73.2138 41.1163 73.1504 41.4375 73.0238 41.7315C72.9016 42.0256 72.7275 42.2811 72.5013 42.4983C72.2797 42.7154 72.0173 42.885 71.7142 43.0071C71.4112 43.1248 71.0809 43.1836 70.7236 43.1836ZM70.7236 42.7357C71.0086 42.7357 71.2709 42.6882 71.5107 42.5933C71.7549 42.4937 71.9653 42.3558 72.1417 42.1794C72.3226 41.9984 72.4629 41.7903 72.5624 41.5551C72.6619 41.3154 72.7116 41.053 72.7116 40.768C72.7116 40.4831 72.6619 40.223 72.5624 39.9877C72.4629 39.748 72.3226 39.5399 72.1417 39.3635C71.9653 39.1826 71.7549 39.0446 71.5107 38.9496C71.2709 38.8501 71.0086 38.8003 70.7236 38.8003C70.4386 38.8003 70.174 38.8501 69.9297 38.9496C69.6855 39.0446 69.4729 39.1826 69.2919 39.3635C69.1155 39.5399 68.9753 39.748 68.8712 39.9877C68.7717 40.223 68.722 40.4831 68.722 40.768C68.722 41.0485 68.7717 41.3086 68.8712 41.5483C68.9753 41.7881 69.1155 41.9984 69.2919 42.1794C69.4729 42.3558 69.6855 42.4937 69.9297 42.5933C70.174 42.6882 70.4386 42.7357 70.7236 42.7357ZM74.7802 43.1429V38.3932H76.5579C76.9605 38.3932 77.3066 38.4588 77.5961 38.59C77.8856 38.7167 78.1072 38.9021 78.261 39.1464C78.4194 39.3861 78.4985 39.6779 78.4985 40.0217C78.4985 40.3564 78.4194 40.6459 78.261 40.8902C78.1072 41.1299 77.8856 41.3154 77.5961 41.4466C77.3066 41.5732 76.9605 41.6365 76.5579 41.6365H75.0584L75.2823 41.4058V43.1429H74.7802ZM78.0235 43.1429L76.8022 41.4194H77.345L78.5731 43.1429H78.0235ZM75.2823 41.4466L75.0584 41.2091H76.5444C77.0193 41.2091 77.379 41.105 77.6232 40.897C77.872 40.6889 77.9964 40.3971 77.9964 40.0217C77.9964 39.6417 77.872 39.3477 77.6232 39.1396C77.379 38.9315 77.0193 38.8275 76.5444 38.8275H75.0584L75.2823 38.59V41.4466ZM79.3647 43.1429L81.5359 38.3932H82.0313L84.2025 43.1429H83.6733L81.6784 38.685H81.882L79.8871 43.1429H79.3647ZM80.2196 41.874L80.3689 41.4669H83.1305L83.2797 41.874H80.2196ZM85.4293 43.1429V38.3932H87.363C87.8697 38.3932 88.313 38.495 88.6929 38.6986C89.0774 38.8976 89.376 39.1758 89.5886 39.5331C89.8012 39.8905 89.9075 40.3021 89.9075 40.768C89.9075 41.234 89.8012 41.6456 89.5886 42.0029C89.376 42.3603 89.0774 42.6407 88.6929 42.8443C88.313 43.0433 87.8697 43.1429 87.363 43.1429H85.4293ZM85.9314 42.7086H87.3359C87.7566 42.7086 88.1207 42.6272 88.4283 42.4643C88.7404 42.297 88.9824 42.0685 89.1543 41.779C89.3262 41.485 89.4122 41.148 89.4122 40.768C89.4122 40.3835 89.3262 40.0465 89.1543 39.757C88.9824 39.4675 88.7404 39.2414 88.4283 39.0785C88.1207 38.9112 87.7566 38.8275 87.3359 38.8275H85.9314V42.7086ZM91.476 43.1429V38.3932H91.9781V43.1429H91.476ZM93.2046 43.1429L95.3759 38.3932H95.8712L98.0424 43.1429H97.5132L95.5184 38.685H95.7219L93.7271 43.1429H93.2046ZM94.0595 41.874L94.2088 41.4669H96.9704L97.1197 41.874H94.0595ZM100.579 43.1836C100.226 43.1836 99.8866 43.127 99.5609 43.0139C99.2398 42.8963 98.991 42.7471 98.8146 42.5661L99.0113 42.1794C99.1787 42.3422 99.4026 42.4802 99.6831 42.5933C99.9681 42.7018 100.267 42.7561 100.579 42.7561C100.877 42.7561 101.119 42.7199 101.305 42.6475C101.495 42.5706 101.633 42.4689 101.719 42.3422C101.809 42.2155 101.854 42.0753 101.854 41.9215C101.854 41.7361 101.8 41.5868 101.691 41.4737C101.587 41.3606 101.449 41.2724 101.278 41.2091C101.106 41.1412 100.916 41.0824 100.708 41.0327C100.5 40.9829 100.291 40.9309 100.083 40.8766C99.8753 40.8178 99.6831 40.7409 99.5067 40.6459C99.3348 40.5509 99.1945 40.4265 99.086 40.2727C98.9819 40.1144 98.9299 39.9086 98.9299 39.6553C98.9299 39.42 98.991 39.2052 99.1131 39.0107C99.2398 38.8116 99.432 38.6533 99.6899 38.5357C99.9477 38.4136 100.278 38.3525 100.681 38.3525C100.947 38.3525 101.212 38.391 101.474 38.4679C101.737 38.5402 101.963 38.642 102.153 38.7732L101.983 39.1735C101.78 39.0378 101.563 38.9383 101.332 38.875C101.106 38.8116 100.886 38.78 100.674 38.78C100.389 38.78 100.154 38.8184 99.9681 38.8953C99.7826 38.9722 99.6446 39.0763 99.5542 39.2074C99.4682 39.3341 99.4252 39.4789 99.4252 39.6417C99.4252 39.8272 99.4773 39.9764 99.5813 40.0895C99.6899 40.2026 99.8301 40.2908 100.002 40.3541C100.178 40.4175 100.371 40.474 100.579 40.5238C100.787 40.5735 100.993 40.6278 101.196 40.6866C101.404 40.7454 101.594 40.8223 101.766 40.9173C101.943 41.0078 102.083 41.1299 102.187 41.2837C102.295 41.4375 102.35 41.6388 102.35 41.8876C102.35 42.1183 102.286 42.3332 102.16 42.5322C102.033 42.7267 101.839 42.885 101.576 43.0071C101.318 43.1248 100.986 43.1836 100.579 43.1836ZM108.015 43.1836C107.409 43.1836 106.932 43.0094 106.583 42.6611C106.235 42.3128 106.061 41.7971 106.061 41.1141V38.3932H106.563V41.0937C106.563 41.6546 106.69 42.0685 106.943 42.3354C107.196 42.6023 107.554 42.7357 108.015 42.7357C108.481 42.7357 108.84 42.6023 109.094 42.3354C109.347 42.0685 109.474 41.6546 109.474 41.0937V38.3932H109.962V41.1141C109.962 41.7971 109.788 42.3128 109.44 42.6611C109.096 43.0094 108.621 43.1836 108.015 43.1836ZM111.916 43.1429V38.3932H112.33L115.608 42.5186H115.39V38.3932H115.886V43.1429H115.472L112.201 39.0175H112.419V43.1429H111.916ZM117.877 43.1429V38.3932H118.379V43.1429H117.877ZM121.663 43.1429L119.559 38.3932H120.102L122.07 42.8647H121.771L123.753 38.3932H124.262L122.158 43.1429H121.663ZM125.84 40.517H128.35V40.9445H125.84V40.517ZM125.894 42.7086H128.751V43.1429H125.392V38.3932H128.649V38.8275H125.894V42.7086ZM130.372 43.1429V38.3932H132.15C132.552 38.3932 132.898 38.4588 133.188 38.59C133.477 38.7167 133.699 38.9021 133.853 39.1464C134.011 39.3861 134.09 39.6779 134.09 40.0217C134.09 40.3564 134.011 40.6459 133.853 40.8902C133.699 41.1299 133.477 41.3154 133.188 41.4466C132.898 41.5732 132.552 41.6365 132.15 41.6365H130.65L130.874 41.4058V43.1429H130.372ZM133.615 43.1429L132.394 41.4194H132.937L134.165 43.1429H133.615ZM130.874 41.4466L130.65 41.2091H132.136C132.611 41.2091 132.971 41.105 133.215 40.897C133.464 40.6889 133.588 40.3971 133.588 40.0217C133.588 39.6417 133.464 39.3477 133.215 39.1396C132.971 38.9315 132.611 38.8275 132.136 38.8275H130.65L130.874 38.59V41.4466ZM137.026 43.1836C136.673 43.1836 136.334 43.127 136.008 43.0139C135.687 42.8963 135.438 42.7471 135.262 42.5661L135.458 42.1794C135.626 42.3422 135.85 42.4802 136.13 42.5933C136.415 42.7018 136.714 42.7561 137.026 42.7561C137.324 42.7561 137.566 42.7199 137.752 42.6475C137.942 42.5706 138.08 42.4689 138.166 42.3422C138.256 42.2155 138.301 42.0753 138.301 41.9215C138.301 41.7361 138.247 41.5868 138.139 41.4737C138.035 41.3606 137.897 41.2724 137.725 41.2091C137.553 41.1412 137.363 41.0824 137.155 41.0327C136.947 40.9829 136.739 40.9309 136.53 40.8766C136.322 40.8178 136.13 40.7409 135.954 40.6459C135.782 40.5509 135.642 40.4265 135.533 40.2727C135.429 40.1144 135.377 39.9086 135.377 39.6553C135.377 39.42 135.438 39.2052 135.56 39.0107C135.687 38.8116 135.879 38.6533 136.137 38.5357C136.395 38.4136 136.725 38.3525 137.128 38.3525C137.394 38.3525 137.659 38.391 137.921 38.4679C138.184 38.5402 138.41 38.642 138.6 38.7732L138.43 39.1735C138.227 39.0378 138.01 38.9383 137.779 38.875C137.553 38.8116 137.333 38.78 137.121 38.78C136.836 38.78 136.601 38.8184 136.415 38.8953C136.23 38.9722 136.092 39.0763 136.001 39.2074C135.915 39.3341 135.872 39.4789 135.872 39.6417C135.872 39.8272 135.924 39.9764 136.028 40.0895C136.137 40.2026 136.277 40.2908 136.449 40.3541C136.625 40.4175 136.818 40.474 137.026 40.5238C137.234 40.5735 137.44 40.6278 137.643 40.6866C137.851 40.7454 138.041 40.8223 138.213 40.9173C138.39 41.0078 138.53 41.1299 138.634 41.2837C138.742 41.4375 138.797 41.6388 138.797 41.8876C138.797 42.1183 138.733 42.3332 138.607 42.5322C138.48 42.7267 138.286 42.885 138.023 43.0071C137.765 43.1248 137.433 43.1836 137.026 43.1836ZM140.332 43.1429V38.3932H140.834V43.1429H140.332ZM143.743 43.1429V38.8275H142.074V38.3932H145.914V38.8275H144.245V43.1429H143.743ZM146.159 43.1429L148.33 38.3932H148.826L150.997 43.1429H150.468L148.473 38.685H148.676L146.681 43.1429H146.159ZM147.014 41.874L147.163 41.4669H149.925L150.074 41.874H147.014ZM148.14 38.0065L149.07 37.1651H149.714L148.615 38.0065H148.14ZM152.224 43.1429V38.3932H154.001C154.404 38.3932 154.75 38.4588 155.039 38.59C155.329 38.7167 155.551 38.9021 155.704 39.1464C155.863 39.3861 155.942 39.6779 155.942 40.0217C155.942 40.3564 155.863 40.6459 155.704 40.8902C155.551 41.1299 155.329 41.3154 155.039 41.4466C154.75 41.5732 154.404 41.6365 154.001 41.6365H152.502L152.726 41.4058V43.1429H152.224ZM155.467 43.1429L154.246 41.4194H154.788L156.016 43.1429H155.467ZM152.726 41.4466L152.502 41.2091H153.988C154.463 41.2091 154.822 41.105 155.067 40.897C155.315 40.6889 155.44 40.3971 155.44 40.0217C155.44 39.6417 155.315 39.3477 155.067 39.1396C154.822 38.9315 154.463 38.8275 153.988 38.8275H152.502L152.726 38.59V41.4466ZM157.568 43.1429V38.3932H158.07V43.1429H157.568ZM159.297 43.1429L161.468 38.3932H161.963L164.134 43.1429H163.605L161.61 38.685H161.814L159.819 43.1429H159.297ZM160.151 41.874L160.301 41.4669H163.062L163.212 41.874H160.151ZM166.671 43.1836C166.318 43.1836 165.979 43.127 165.653 43.0139C165.332 42.8963 165.083 42.7471 164.907 42.5661L165.103 42.1794C165.271 42.3422 165.495 42.4802 165.775 42.5933C166.06 42.7018 166.359 42.7561 166.671 42.7561C166.969 42.7561 167.211 42.7199 167.397 42.6475C167.587 42.5706 167.725 42.4689 167.811 42.3422C167.901 42.2155 167.946 42.0753 167.946 41.9215C167.946 41.7361 167.892 41.5868 167.783 41.4737C167.679 41.3606 167.541 41.2724 167.37 41.2091C167.198 41.1412 167.008 41.0824 166.8 41.0327C166.592 40.9829 166.383 40.9309 166.175 40.8766C165.967 40.8178 165.775 40.7409 165.599 40.6459C165.427 40.5509 165.286 40.4265 165.178 40.2727C165.074 40.1144 165.022 39.9086 165.022 39.6553C165.022 39.42 165.083 39.2052 165.205 39.0107C165.332 38.8116 165.524 38.6533 165.782 38.5357C166.04 38.4136 166.37 38.3525 166.772 38.3525C167.039 38.3525 167.304 38.391 167.566 38.4679C167.829 38.5402 168.055 38.642 168.245 38.7732L168.075 39.1735C167.872 39.0378 167.655 38.9383 167.424 38.875C167.198 38.8116 166.978 38.78 166.766 38.78C166.481 38.78 166.245 38.8184 166.06 38.8953C165.875 38.9722 165.737 39.0763 165.646 39.2074C165.56 39.3341 165.517 39.4789 165.517 39.6417C165.517 39.8272 165.569 39.9764 165.673 40.0895C165.782 40.2026 165.922 40.2908 166.094 40.3541C166.27 40.4175 166.463 40.474 166.671 40.5238C166.879 40.5735 167.085 40.6278 167.288 40.6866C167.496 40.7454 167.686 40.8223 167.858 40.9173C168.034 41.0078 168.175 41.1299 168.279 41.2837C168.387 41.4375 168.442 41.6388 168.442 41.8876C168.442 42.1183 168.378 42.3332 168.252 42.5322C168.125 42.7267 167.93 42.885 167.668 43.0071C167.41 43.1248 167.078 43.1836 166.671 43.1836Z" fill="white"/>
<path d="M65.4571 20.9205H73.7381V22.3529H65.4571V20.9205ZM65.6362 29H63.98V13.3333H74.7228V14.7657H65.6362V29ZM78.7292 24.8819V23.7181L87.0325 13.3333H88.823L80.5868 23.7181L79.714 23.4495H92.3145V24.8819H78.7292ZM87.5697 29V24.8819L87.6145 23.4495V19.8238H89.1811V29H87.5697ZM98.5393 29V13.3333H100.196V27.5676H108.969V29H98.5393ZM115.076 29V13.3333H116.732V29H115.076ZM126.664 20.9205H134.945V22.3529H126.664V20.9205ZM126.843 29H125.187V13.3333H135.93V14.7657H126.843V29ZM144.184 20.3386H152.465V21.7486H144.184V20.3386ZM144.363 27.5676H153.785V29H142.707V13.3333H153.45V14.7657H144.363V27.5676Z" fill="#6DDAD3"/>
<rect x="0.714286" y="0.714286" width="50.9524" height="50.9524" stroke="#6DDAD3" stroke-width="1.42857"/>
<rect x="29.0476" y="7.61905" width="10.4762" height="36.6667" fill="white"/>
<rect x="12.8571" y="21.4286" width="10.4762" height="22.8571" fill="white"/>
</svg>
