<svg width="25" height="21" viewBox="0 0 25 21" fill="none" xmlns="http://www.w3.org/2000/svg">
<path d="M24.4091 3.25732C23.5482 3.63877 22.6235 3.89652 21.6513 4.01301C22.6544 3.41278 23.4049 2.46808 23.7627 1.35519C22.8202 1.91499 21.7887 2.30903 20.7131 2.52018C19.9897 1.74784 19.0316 1.23593 17.9875 1.06391C16.9434 0.891893 15.8718 1.06939 14.9389 1.56886C14.006 2.06832 13.2641 2.8618 12.8284 3.8261C12.3927 4.79041 12.2876 5.87159 12.5293 6.90178C10.6196 6.80589 8.75144 6.30954 7.04602 5.44493C5.34059 4.58031 3.83602 3.36677 2.62996 1.88304C2.21757 2.59441 1.98045 3.41918 1.98045 4.29756C1.97999 5.08831 2.17472 5.86694 2.54735 6.56438C2.91999 7.26181 3.45902 7.85649 4.11661 8.29564C3.35398 8.27138 2.60817 8.06531 1.94127 7.69459V7.75645C1.94119 8.8655 2.32482 9.94042 3.02707 10.7988C3.72931 11.6572 4.70691 12.2462 5.79399 12.4659C5.08652 12.6574 4.3448 12.6856 3.62484 12.5484C3.93155 13.5026 4.52899 14.3371 5.33352 14.935C6.13806 15.5328 7.10941 15.8641 8.1116 15.8825C6.41033 17.218 4.30928 17.9425 2.14643 17.9393C1.76331 17.9394 1.3805 17.917 1 17.8723C3.19542 19.2838 5.75104 20.033 8.36109 20.0301C17.1965 20.0301 22.0265 12.7123 22.0265 6.36568C22.0265 6.15948 22.0214 5.95123 22.0121 5.74503C22.9516 5.0656 23.7626 4.22425 24.407 3.26041L24.4091 3.25732Z" fill="#6DDAD3"/>
<path d="M23.4091 2.25732C22.5482 2.63877 21.6235 2.89652 20.6513 3.01301C21.6544 2.41278 22.4049 1.46808 22.7627 0.355186C21.8202 0.91499 20.7887 1.30903 19.7131 1.52018C18.9897 0.747845 18.0316 0.235931 16.9875 0.063912C15.9434 -0.108107 14.8718 0.0693941 13.9389 0.568857C13.006 1.06832 12.2641 1.8618 11.8284 2.8261C11.3927 3.79041 11.2876 4.87159 11.5293 5.90178C9.61961 5.80589 7.75144 5.30954 6.04602 4.44493C4.34059 3.58031 2.83602 2.36677 1.62996 0.883041C1.21757 1.59441 0.980448 2.41918 0.980448 3.29756C0.979988 4.08831 1.17472 4.86694 1.54735 5.56438C1.91999 6.26181 2.45902 6.85649 3.11661 7.29564C2.35398 7.27138 1.60817 7.06531 0.941271 6.69459V6.75645C0.941194 7.8655 1.32482 8.94042 2.02707 9.79882C2.72931 10.6572 3.70691 11.2462 4.79399 11.4659C4.08652 11.6574 3.3448 11.6856 2.62484 11.5484C2.93155 12.5026 3.52899 13.3371 4.33352 13.935C5.13806 14.5328 6.10941 14.8641 7.1116 14.8825C5.41033 16.218 3.30928 16.9425 1.14643 16.9393C0.763307 16.9394 0.380505 16.917 0 16.8723C2.19542 18.2838 4.75104 19.033 7.36109 19.0301C16.1965 19.0301 21.0265 11.7123 21.0265 5.36568C21.0265 5.15948 21.0214 4.95123 21.0121 4.74503C21.9516 4.0656 22.7626 3.22425 23.407 2.26041L23.4091 2.25732Z" fill="#132235"/>
</svg>
