<svg width="25" height="25" viewBox="0 0 25 25" fill="none" xmlns="http://www.w3.org/2000/svg">
<path fill-rule="evenodd" clip-rule="evenodd" d="M18.068 15.0954C17.7759 14.9494 16.344 14.2457 16.0774 14.1477C15.8109 14.0507 15.6168 14.0027 15.4218 14.2947C15.2277 14.5848 14.6701 15.2415 14.5005 15.4355C14.33 15.6306 14.1604 15.6541 13.8693 15.509C13.5783 15.362 12.6393 15.0553 11.527 14.0634C10.6616 13.2911 10.0765 12.3375 9.9069 12.0455C9.73735 11.7544 9.88828 11.5966 10.0343 11.4515C10.1656 11.3212 10.3254 11.1114 10.4714 10.9419C10.6175 10.7714 10.6655 10.6498 10.7625 10.4548C10.8605 10.2607 10.8115 10.0912 10.738 9.94516C10.6655 9.79913 10.0833 8.36529 9.84025 7.78214C9.60406 7.21468 9.36394 7.29211 9.18557 7.28231C9.01503 7.27447 8.82098 7.2725 8.62692 7.2725C8.43287 7.2725 8.11729 7.34503 7.85071 7.63709C7.58315 7.92817 6.83143 8.63285 6.83143 10.0667C6.83143 11.4996 7.87423 12.8844 8.02026 13.0794C8.16629 13.2735 10.0735 16.2157 12.9951 17.477C13.691 17.7769 14.2329 17.9563 14.6554 18.0896C15.3532 18.312 15.9883 18.2807 16.49 18.2052C17.0487 18.1219 18.213 17.5005 18.4561 16.8204C18.6982 16.1402 18.6981 15.5571 18.6256 15.4355C18.5531 15.314 18.36 15.2415 18.068 15.0954ZM12.754 22.3509H12.7501C11.0148 22.3512 9.31138 21.8848 7.81836 21.0004L7.46554 20.7906L3.79811 21.7531L4.7772 18.1778L4.54688 17.8112C3.57675 16.267 3.06334 14.4797 3.06599 12.656C3.06795 7.31465 7.41359 2.96901 12.7579 2.96901C15.3453 2.96901 17.7779 3.97848 19.6067 5.80926C20.5087 6.70757 21.2237 7.77584 21.7102 8.95225C22.1967 10.1287 22.4451 11.3899 22.441 12.6629C22.4391 18.0043 18.0934 22.3509 12.754 22.3509ZM20.9984 4.41853C19.9185 3.33156 18.6337 2.4697 17.2183 1.88289C15.803 1.29608 14.2852 0.996005 12.753 1.00004C6.32963 1.00004 1.09997 6.22873 1.09801 12.6551C1.09503 14.7002 1.63153 16.71 2.65338 18.4816L1 24.5218L7.17838 22.9007C8.8875 23.8319 10.8028 24.3198 12.7491 24.3199H12.754C19.1774 24.3199 24.4071 19.0912 24.409 12.6639C24.4138 11.1323 24.1148 9.61498 23.5293 8.19969C22.9439 6.7844 22.0837 5.49923 20.9984 4.41853Z" fill="#6DDAD3"/>
<path fill-rule="evenodd" clip-rule="evenodd" d="M17.068 14.0954C16.7759 13.9494 15.344 13.2457 15.0774 13.1477C14.8109 13.0507 14.6168 13.0027 14.4218 13.2947C14.2277 13.5848 13.6701 14.2415 13.5005 14.4355C13.33 14.6306 13.1604 14.6541 12.8693 14.509C12.5783 14.362 11.6393 14.0553 10.527 13.0634C9.66156 12.2911 9.07645 11.3375 8.9069 11.0455C8.73735 10.7544 8.88828 10.5966 9.03431 10.4515C9.16564 10.3212 9.32539 10.1114 9.47142 9.9419C9.61745 9.77136 9.66548 9.64983 9.7625 9.4548C9.86051 9.26075 9.81151 9.09119 9.738 8.94516C9.66548 8.79913 9.08331 7.36529 8.84025 6.78214C8.60406 6.21468 8.36394 6.29211 8.18557 6.28231C8.01503 6.27447 7.82098 6.2725 7.62692 6.2725C7.43287 6.2725 7.11729 6.34503 6.85071 6.63709C6.58315 6.92817 5.83143 7.63285 5.83143 9.06669C5.83143 10.4996 6.87423 11.8844 7.02026 12.0794C7.16629 12.2735 9.07351 15.2157 11.9951 16.477C12.691 16.7769 13.2329 16.9563 13.6554 17.0896C14.3532 17.312 14.9883 17.2807 15.49 17.2052C16.0487 17.1219 17.213 16.5005 17.4561 15.8204C17.6982 15.1402 17.6981 14.5571 17.6256 14.4355C17.5531 14.314 17.36 14.2415 17.068 14.0954ZM11.754 21.3509H11.7501C10.0148 21.3512 8.31138 20.8848 6.81836 20.0004L6.46554 19.7906L2.79811 20.7531L3.7772 17.1778L3.54688 16.8112C2.57675 15.267 2.06334 13.4797 2.06599 11.656C2.06795 6.31465 6.41359 1.96901 11.7579 1.96901C14.3453 1.96901 16.7779 2.97848 18.6067 4.80926C19.5087 5.70757 20.2237 6.77584 20.7102 7.95225C21.1967 9.12866 21.4451 10.3899 21.441 11.6629C21.4391 17.0043 17.0934 21.3509 11.754 21.3509ZM19.9984 3.41853C18.9185 2.33156 17.6337 1.4697 16.2183 0.88289C14.803 0.296085 13.2852 -0.00399502 11.753 4.0161e-05C5.32963 4.0161e-05 0.0999674 5.22873 0.0980073 11.6551C0.0950308 13.7002 0.631534 15.71 1.65338 17.4816L0 23.5218L6.17838 21.9007C7.8875 22.8319 9.80278 23.3198 11.7491 23.3199H11.754C18.1774 23.3199 23.4071 18.0912 23.409 11.6639C23.4138 10.1323 23.1148 8.61498 22.5293 7.19969C21.9439 5.7844 21.0837 4.49923 19.9984 3.41853Z" fill="#132235"/>
</svg>
