<svg width="32" height="22" viewBox="0 0 32 22" fill="none" xmlns="http://www.w3.org/2000/svg">
<path d="M31.2583 4.23428C31.0833 3.61012 30.7425 3.04503 30.272 2.59909C29.7883 2.13944 29.1954 1.81064 28.5493 1.64372C26.1313 1.00638 16.4437 1.00638 16.4437 1.00638C12.4051 0.960435 8.36744 1.16253 4.35358 1.61153C3.70748 1.79078 3.11568 2.12693 2.63084 2.59008C2.15444 3.04844 1.80938 3.61368 1.62912 4.23299C1.19611 6.56571 0.98572 8.9343 1.00079 11.3068C0.985344 13.6772 1.19522 16.045 1.62912 18.3806C1.80552 18.9974 2.14929 19.56 2.62697 20.0145C3.10466 20.469 3.69951 20.7974 4.35358 20.9712C6.8038 21.6072 16.4437 21.6072 16.4437 21.6072C20.4875 21.6533 24.5303 21.4512 28.5493 21.0021C29.1954 20.8352 29.7883 20.5064 30.272 20.0467C30.7423 19.6009 31.0828 19.0357 31.257 18.4115C31.7013 16.0797 31.9174 13.7102 31.9021 11.3364C31.9355 8.95266 31.7197 6.57192 31.2583 4.23299V4.23428ZM13.3639 15.7154V6.89952L21.424 11.3081L13.3639 15.7154Z" fill="#6DDAD3"/>
<path d="M30.2583 3.23428C30.0833 2.61012 29.7425 2.04503 29.272 1.59909C28.7883 1.13944 28.1954 0.810637 27.5493 0.643724C25.1313 0.00638469 15.4437 0.00638484 15.4437 0.00638484C11.4051 -0.0395645 7.36744 0.162532 3.35358 0.611535C2.70748 0.790779 2.11568 1.12693 1.63084 1.59008C1.15444 2.04844 0.809378 2.61368 0.629121 3.23299C0.196108 5.56571 -0.01428 7.9343 0.000794657 10.3068C-0.014656 12.6772 0.195215 15.045 0.629121 17.3806C0.805516 17.9974 1.14929 18.56 1.62697 19.0145C2.10466 19.469 2.69951 19.7974 3.35358 19.9712C5.8038 20.6072 15.4437 20.6072 15.4437 20.6072C19.4875 20.6533 23.5303 20.4512 27.5493 20.0021C28.1954 19.8352 28.7883 19.5064 29.272 19.0467C29.7423 18.6009 30.0828 18.0357 30.257 17.4115C30.7013 15.0797 30.9174 12.7102 30.9021 10.3364C30.9355 7.95266 30.7197 5.57192 30.2583 3.23299V3.23428ZM12.3639 14.7154V5.89952L20.424 10.3081L12.3639 14.7154Z" fill="#132235"/>
</svg>
